<svg xmlns="http://www.w3.org/2000/svg" viewBox="0 0 649.33 678.87"><defs><style>.cls-1{fill:#fff;}</style></defs><title>Recurso 3</title><g id="Capa_2" data-name="Capa 2"><g id="Capa_3" data-name="Capa 3"><polygon class="cls-1" points="103.92 474.55 114.81 485.37 130.08 486.94 119.26 497.83 117.69 513.1 106.8 502.28 91.52 500.71 102.34 489.82 103.92 474.55"/><polygon class="cls-1" points="530.08 174.6 540.97 185.43 556.24 187 545.42 197.89 543.84 213.16 532.96 202.34 517.68 200.77 528.5 189.88 530.08 174.6"/><path class="cls-1" d="M74.67,437c-23-3-46,3-66,14-2-15-5-31-8-46,29-15,62-13,93-13,17-1,33-6,48-14,4,15,6,30,9,45-23,12-50,15-76,14Z" transform="translate(-0.67)"/><path class="cls-1" d="M71.46,342.75q-41.16-12.25-60-17.1L24.87,280.5,55.31,291q-13.76-8.83-19.47-22.78a41.33,41.33,0,0,1-1.44-28.27q3.95-13.23,11.68-19.32t19.25-6.3q11.52-.22,28.36,4.21,7.66,2.08,17.54,5t19.55,5.63q24.84,7.4,36.19,10.38l-13.35,44.79q-14.94-4.84-34.7-10.74l-26.65-7.94q-14-4.17-22.7-2.33T58.34,273.5a24.32,24.32,0,0,0-.4,9.95q.8,6,3.33,8.69l27,8.05q37.89,11.3,55.87,15.87L130.71,361.2Q112.44,355,71.46,342.75Z" transform="translate(-0.67)"/><path class="cls-1" d="M224,158.74s.43,23.28-1.95,32-8.24,16.23-17.6,22.42q-17.19,11.38-33.78,4t-35.58-36.11Q117.35,154.24,117.43,135t19-31.76a41.53,41.53,0,0,1,16.23-6.32,37.28,37.28,0,0,1,18.12,1.5c6.1,2,19,9.67,19,9.67A167.54,167.54,0,0,0,177.11,92l-3.77-4.32-12-18.14,36.15-29.36q5.85,9.51,22.86,35.23l18.8,28.4q29.55,44.64,39,57.9l-40.07,26.52Q231.5,174.88,224,158.74Zm-9.39,5.87c2.45-3.5,3.72-6.65,3.84-9.45L203.1,132q-6.67-10.09-16-13.57a18.47,18.47,0,0,0-17.53,2,43.35,43.35,0,0,0-9.48,9q2.82,7,5.73,12.77A129.89,129.89,0,0,0,173.43,155q7.41,11.2,16.15,17.22t17.27.37A29.77,29.77,0,0,0,214.61,164.61Z" transform="translate(-0.67)"/><path class="cls-1" d="M290.67,109c1-10,3-21,4-31,0-13-2-25-7-37,15,0,31,1,46-2,11,29,3,60,1,90-1,9-1,19,3,28,1,2,3,4,3,7-16,1-31,1-47,2-4-19-8-38-3-57Z" transform="translate(-0.67)"/><path class="cls-1" d="M293.81,26q-5-3.16-5.53-10.53t4.1-11Q297,.89,308.11.15t16.26,2.23q5.13,3,5.62,10.34t-4.28,11.19q-4.77,3.82-15.71,4.55Q298.86,29.21,293.81,26Z" transform="translate(-0.67)"/><path class="cls-1" d="M496.06,146.06l-75.81-26.68q-5.5,12.45-4.47,22t10.14,13.71a39.3,39.3,0,0,0,6.56,2.28,25.06,25.06,0,0,0,6.33.93,156.24,156.24,0,0,0,10.51-17.45l40.33,18.73q-9,16.45-20,24.74t-26.1,8.32q-15.1,0-35.57-9.36-27.33-12.54-35.06-33.58t5.93-50.78q13.66-29.75,35.55-37.28t52,6.27q27.17,12.46,34.16,30.78t-3.92,46.18Zm-54-52.47a30.23,30.23,0,0,0-7.64-.59q-7.29,12.27-10.15,18l33,11.6q6.18-20.26-7.92-26.74A33,33,0,0,0,442.08,93.59Z" transform="translate(-0.67)"/><path class="cls-1" d="M191.51,646.36q3.6-12.48,4.84-16.83.75-2.22,1.47-5t1.67-6.2l-17.32-9.24L165,599.94l-19.19,22-42.78-22.84,27.88-31.8q54.24-61.58,71.13-81.78l72,38.41q-11.42,40.17-38.92,145.67Zm14.63-51.52q14.34-50.6,25.44-75.86l-2.21-1.18q-17.48,25.8-48.7,63.44Z" transform="translate(-0.67)"/><path class="cls-1" d="M298.45,616.32q-6.39-43.22-10.05-62.71l47.4-7,3.45,32.56q2.24-16.49,12.63-27.74a42,42,0,0,1,25.43-13.49q13.89-2.05,22.83,2.46t14.09,15q5.16,10.53,8.32,28,1.36,8,2.91,18.35t3.21,20.43q3.85,26.08,6,37.83l-47,6.95q-2-15.85-5-36.6l-4.14-28q-2.16-14.65-7.62-21.92t-14.21-6a24.45,24.45,0,0,0-9.34,3.91q-5.16,3.28-6.58,6.81l4.2,28.36q5.88,39.79,9.4,58.33l-47.4,7Q304.8,659.34,298.45,616.32Z" transform="translate(-0.67)"/><path class="cls-1" d="M540.68,544s5.24,23.09,4.69,32.29-4.86,17.87-12.9,26q-14.78,14.88-32.82,10.94t-42.9-28.61q-23.22-23-27.11-42.22T442,506.8a42.39,42.39,0,0,1,14.87-9.65,38,38,0,0,1,18.36-2.25c6.49.75,20.91,5.7,20.91,5.7a172.36,172.36,0,0,0-16-13.41l-4.64-3.52-15.71-15.58,29.93-36.72q7.8,8.26,30.06,30.36l24.59,24.4q38.65,38.36,50.81,49.6l-34.43,34.7Q551.49,558.49,540.68,544Zm-8.13,7.78q2.57-6,1.87-10.21l-20.08-19.92q-8.75-8.68-18.75-10.21A18.83,18.83,0,0,0,478.53,517,43.92,43.92,0,0,0,471,527.92q4.24,6.38,8.35,11.53a129.24,129.24,0,0,0,10.25,11.25q9.69,9.63,19.64,13.81t17.27-3.2A30.33,30.33,0,0,0,532.55,551.76Z" transform="translate(-0.67)"/><path class="cls-1" d="M494.18,409.43c-3.25,2.4-7.26,2.86-12,1.35s-7.74-4.15-8.9-7.94-.6-9.3,1.68-16.52,5-12.09,8.12-14.59,7.1-3,11.87-1.51,7.78,4.23,9,8.19.74,9.48-1.49,16.58S497.43,407,494.18,409.43Z" transform="translate(-0.67)"/><path class="cls-1" d="M570.67,443c-19-12-41-24-65-24,6-15,13-29,17-45,31,3,56,22,84,35a73,73,0,0,0,35,9c-3,16-12,30-16,45-19-3-38-9-55-20Z" transform="translate(-0.67)"/><path class="cls-1" d="M567.91,243.64,587.68,323q13.67-2.28,21.18-8.5t6-16.3a39.89,39.89,0,0,0-1.73-6.84,26.62,26.62,0,0,0-2.76-5.91,161.16,161.16,0,0,0-20.7.85L583,241.52q19-1.56,32.21,3.13t21.67,17.51q8.49,12.81,12,35.44,4.65,30.25-8.89,48.58t-46.45,23.39q-32.9,5.06-51.56-9.31T518.14,312.6q-4.6-30,7-46.24t41.42-22.52Zm-14.35,75.21a31.32,31.32,0,0,0,3.77,6.82q14.5-.68,21-1.47l-8.61-34.51q-20.67,6.1-18.28,21.69A33.38,33.38,0,0,0,553.56,318.85Z" transform="translate(-0.67)"/><path class="cls-1" d="M412.92,355.26a.81.81,0,0,0-.21-.32c-.4-.33-.64-.77-1.08-1l0-.12-.22-.13-.49-.43,0-.12a1.58,1.58,0,0,1-.53-.35,1.65,1.65,0,0,1-.35-.35l-.93-.69c-.41-.14-.62-.46-1-.6-.14-.08-.25-.24-.4-.33a23.39,23.39,0,0,0-4.94-2.36l-.09-.1c-.47-.12-.77-.3-1.24-.42l-.09-.1c-.27-.05-.47-.12-.74-.18l-.09-.1c-.26-.05-.47-.12-.73-.18l-.09-.1c-1.41-.37-2.71-.77-4.12-1.15-.4-.08-.78-.1-1.12-.2-.56-.22-1.16-.12-1.68-.42-2.67-.41-5.32-.95-8.08-1.21,0,0-.08-.1-.14-.09-.86-.15-1.66-.12-2.45-.28s-1.72-.1-2.56-.19c-.06,0-.09-.1-.14-.09-3.53-.3-16.42-2.23-8.4-4.5,9.64-2.77,18.57-7.48,25.7-15.14.09-.15.19-.24.28-.39.53-.58.94-1.13,1.48-1.71a2.23,2.23,0,0,0,.44-.43c.86-1.23,1.71-2.27,2.49-3.54.1-.09.19-.24.29-.33a35.64,35.64,0,0,0,5.76-17.49c.34-7.34-1.73-14.6-7.6-19.72-.09-.1-.21-.07-.3-.17a3,3,0,0,0-.65-.58,12.71,12.71,0,0,0-2.68-1.59c-.41-.14-.68-.44-1.06-.47-.14,0-.17-.14-.3-.17a.21.21,0,0,1-.19,0,15.82,15.82,0,0,0-9-.71c-7.56,1.65-13.33,6.7-18.54,12.72-.1.09-.16.1-.26.19a.84.84,0,0,1-.17.3,100.79,100.79,0,0,0-7.31,9.34c-5.73,8-8.45,5.33-8.15,3.18,0-.08.14-1.1.18-1.17,3-15.13.23-31.58-11-42.95l-.14,0a4.22,4.22,0,0,0-.53-.6,2.43,2.43,0,0,1-.58-.53l-.14,0c-.16-.15-.19-.26-.35-.41l-.14,0a23.74,23.74,0,0,0-3.16-2.47c-.38-.27-.74-.43-1.12-.7a19.83,19.83,0,0,0-3.46-1.7c-.13,0-.24-.18-.37-.21l-.55-.17-.09-.1a30.24,30.24,0,0,0-5-1.35,23.94,23.94,0,0,0-4.21-.31,18.16,18.16,0,0,0-8.74,2.15l-.24.07-2,1.29c-.26.19-.5.45-.82.66-.06,0,0,.13-.09.15l-.11,0c-.06,0,0,.13-.09.14a9.24,9.24,0,0,0-1.84,2l-.12,0c-.54.77-1,1.53-1.5,2.34-.28.58-.56,1.15-.83,1.79s-.38,1.16-.6,1.72l0,.12a27.55,27.55,0,0,0-.42,12.18,68.49,68.49,0,0,0,4.45,14.75c5.2,12.86,6.24,18.15-3,11.36l-.49-.43c-.08,0-.13,0-.21-.07a51.43,51.43,0,0,0-11.36-6.46,8,8,0,0,1-1-.41c-.08,0-.12,0-.2,0-10.69-4.2-21.9-4.76-32.31.53-.55.27-1,.53-1.58.86a7.53,7.53,0,0,1-1.07.66c-.06,0-.1.09-.14.17a18.13,18.13,0,0,0-2.32,1.62c-.36.28-.71.63-1.07.91-.55.52-1,1-1.59,1.55a26.08,26.08,0,0,0-2.52,3.18.57.57,0,0,1-.16.35c-.58.85-1,1.7-1.49,2.59a7,7,0,0,1-.49,1.2.19.19,0,0,0,0,.19c0,.13-.15.16-.18.29a2.63,2.63,0,0,1-.2.62c0,.13-.07.21-.1.34a.25.25,0,0,1,0,.19,15.94,15.94,0,0,0,4.32,16.85l0,.12c.09.1.22.12.25.24s.22.13.31.23a.22.22,0,0,0,.11.16l.22.13a.2.2,0,0,1,.1.16c.15.08.31.23.46.31a.22.22,0,0,1,.11.16,26.46,26.46,0,0,0,4.54,3l2.72,1.27a1.52,1.52,0,0,0,.47.13l.09.1c.46.07.78.35,1.24.42l.09.1a61.48,61.48,0,0,0,7,1.95,72,72,0,0,0,9.43,1.6c.06,0,.09.1.15.08,12.95,1.41,18.43,3.19,8.88,6.75-.16.11-.4.17-.56.28a52.79,52.79,0,0,0-19.81,12.87c-.28.33-.53.58-.82.91-.08.15-.18.24-.27.38s-.16.11-.26.2a44.88,44.88,0,0,0-3.49,4.69c-.1.09-.19.23-.29.32s-.17.3-.24.51a44.58,44.58,0,0,0-3.66,7.35c-.07.21-.12.47-.19.68a.22.22,0,0,0-.1.09,34.07,34.07,0,0,0-1.32,5.36,30,30,0,0,0-.39,4.85,2.5,2.5,0,0,1-.06.71l.07.23c0,6.43,2.19,12.6,7,17.07l0,.11c.44.26.68.69,1.19.93l0,.12c.9.57,1.69,1.17,2.63,1.67l1.29.59a16.9,16.9,0,0,0,1.93.68,22.16,22.16,0,0,0,2.82.49,16,16,0,0,0,2.5,0,20.2,20.2,0,0,0,5.83-1.38,29.7,29.7,0,0,0,5.11-2.62.38.38,0,0,1,.14-.16,3,3,0,0,0,.66-.36c.1-.09.14-.17.24-.26.39-.16.57-.46,1-.63a2.17,2.17,0,0,0,.34-.34,48.91,48.91,0,0,0,6.67-6.16,111.21,111.21,0,0,0,8.79-11.05l.82-1.16c0-.07,0-.13.07-.2l.52-.64c2.13-3,4-5.89,6-8.94,2.93-4.47,3.35-2.21,1.85,2.7a61,61,0,0,0-2.32,12.12c-.1,1.47-.21,2.94-.24,4.44l.06.24a46.31,46.31,0,0,0,7,26.25,35.82,35.82,0,0,0,7.84,8.72.19.19,0,0,1,.13,0,3.8,3.8,0,0,0,.79.61c.07,0,.11.16.18.2a28.66,28.66,0,0,0,6.5,3.51s.08,0,.09.1a23.87,23.87,0,0,0,8.91,1.74,18.55,18.55,0,0,0,7.61-1.48,15.55,15.55,0,0,0,5.52-3.66l.12,0,.12-.22.12,0a1.37,1.37,0,0,1,.29-.33l.13-.22.11,0c.15-.16.23-.31.38-.47a21.36,21.36,0,0,0,2.85-5.46c0-.13,0-.19,0-.32,2.07-6.75.53-13.4-1.24-19.8q-1.39-4.21-2.89-8.4-1.38-3.84-2.84-7.65-1.23-3.21-2.5-6.41l-1-2.58-.45-1.11a7.82,7.82,0,0,1-.46-1.22c-.15-.64.19-.73.44-.52a15.08,15.08,0,0,1,1.31,1.34c.44.47.87.94,1.32,1.4.89.91,1.8,1.79,2.74,2.65a61.94,61.94,0,0,0,6,4.77,58.44,58.44,0,0,0,6.61,4l.59.3a2.75,2.75,0,0,1,.57.28,45.65,45.65,0,0,0,20.25,4.89c.06,0,.21.07.27.05s.3,0,.48-.06.21.07.26.05c8.7-.2,16.85-2.95,22.94-9.39a21.66,21.66,0,0,0,5.28-9l0-.11.13-.23a26.62,26.62,0,0,0,.57-3.21A16.75,16.75,0,0,0,412.92,355.26Zm-75.82,6.39a22.66,22.66,0,1,1,16-27.75A22.66,22.66,0,0,1,337.1,361.65Z" transform="translate(-0.67)"/></g></g></svg>