<svg id="epX0OZ8c5ol1" xmlns="http://www.w3.org/2000/svg" xmlns:xlink="http://www.w3.org/1999/xlink" viewBox="0 0 649.33 678.87" shape-rendering="geometricPrecision" text-rendering="geometricPrecision"><g id="epX0OZ8c5ol2" transform="translate(.577555 0.550103)"><polygon points="103.92,474.55 114.81,485.37 130.08,486.94 119.26,497.83 117.69,513.1 106.8,502.28 91.52,500.71 102.34,489.82 103.92,474.55" fill="#f0f0f0"/><polygon points="530.08,174.6 540.97,185.43 556.24,187 545.42,197.89 543.84,213.16 532.96,202.34 517.68,200.77 528.5,189.88 530.08,174.6" fill="#f0f0f0"/><path d="M74.67,437c-23-3-46,3-66,14-2-15-5-31-8-46c29-15,62-13,93-13c17-1,33-6,48-14c4,15,6,30,9,45-23,12-50,15-76,14Z" transform="translate(-.67 0)" fill="#f0f0f0"/><path d="M71.46,342.75q-41.16-12.25-60-17.1L24.87,280.5L55.31,291q-13.76-8.83-19.47-22.78c-3.792624-8.960073-4.302551-18.970929-1.44-28.27q3.95-13.23,11.68-19.32t19.25-6.3q11.52-.22,28.36,4.21q7.66,2.08,17.54,5t19.55,5.63q24.84,7.4,36.19,10.38l-13.35,44.79q-14.94-4.84-34.7-10.74l-26.65-7.94q-14-4.17-22.7-2.33t-11.23,10.17c-.818193,3.253575-.954381,6.641246-.4,9.95q.8,6,3.33,8.69l27,8.05q37.89,11.3,55.87,15.87L130.71,361.2q-18.27-6.2-59.25-18.45Z" transform="translate(-.67 0)" fill="#f0f0f0"/><path d="M224,158.74c0,0,.43,23.28-1.95,32s-8.24,16.23-17.6,22.42q-17.19,11.38-33.78,4t-35.58-36.11Q117.35,154.24,117.43,135t19-31.76c4.902465-3.230176,10.434096-5.384207,16.23-6.32c6.07123-1.003133,12.296365-.487807,18.12,1.5c6.1,2,19,9.67,19,9.67-3.891275-5.616682-8.122511-10.990051-12.67-16.09l-3.77-4.32-12-18.14l36.15-29.36q5.85,9.51,22.86,35.23l18.8,28.4q29.55,44.64,39,57.9l-40.07,26.52Q231.5,174.88,224,158.74Zm-9.39,5.87c2.45-3.5,3.72-6.65,3.84-9.45L203.1,132q-6.67-10.09-16-13.57c-5.804595-2.347815-12.403416-1.594954-17.53,2-3.596744,2.503584-6.793074,5.538074-9.48,9q2.82,7,5.73,12.77c2.2898,4.408685,4.830642,8.682373,7.61,12.8q7.41,11.2,16.15,17.22t17.27.37c3.065369-2.148467,5.698045-4.855781,7.76-7.98Z" transform="translate(-.67 0)" fill="#f0f0f0"/><path d="M290.67,109c1-10,3-21,4-31c0-13-2-25-7-37c15,0,31,1,46-2c11,29,3,60,1,90-1,9-1,19,3,28c1,2,3,4,3,7-16,1-31,1-47,2-4-19-8-38-3-57Z" transform="translate(-.67 0)" fill="#f0f0f0"/><path d="M293.81,26q-5-3.16-5.53-10.53t4.1-11Q297,0.89,308.11,0.15t16.26,2.23q5.13,3,5.62,10.34t-4.28,11.19q-4.77,3.82-15.71,4.55-11.14.75-16.19-2.46Z" transform="translate(-.67 0)" fill="#f0f0f0"/><path d="M496.06,146.06l-75.81-26.68q-5.5,12.45-4.47,22t10.14,13.71c2.115099.952099,4.310334,1.715077,6.56,2.28c2.061599.57918,4.188932.891727,6.33.93c3.879197-5.581848,7.38999-11.4109,10.51-17.45l40.33,18.73q-9,16.45-20,24.74t-26.1,8.32q-15.1,0-35.57-9.36-27.33-12.54-35.06-33.58t5.93-50.78q13.66-29.75,35.55-37.28t52,6.27q27.17,12.46,34.16,30.78t-3.92,46.18Zm-54-52.47c-2.51133-.519944-5.078617-.718203-7.64-.59q-7.29,12.27-10.15,18l33,11.6q6.18-20.26-7.92-26.74c-2.327603-1.034712-4.767179-1.79645-7.27-2.27Z" transform="translate(-.67 0)" fill="#f0f0f0"/><path d="M191.51,646.36q3.6-12.48,4.84-16.83.75-2.22,1.47-5t1.67-6.2l-17.32-9.24L165,599.94l-19.19,22-42.78-22.84l27.88-31.8q54.24-61.58,71.13-81.78l72,38.41Q262.62,564.1,235.12,669.6Zm14.63-51.52q14.34-50.6,25.44-75.86l-2.21-1.18q-17.48,25.8-48.7,63.44Z" transform="translate(-.67 0)" fill="#f0f0f0"/><path d="M298.45,616.32q-6.39-43.22-10.05-62.71l47.4-7l3.45,32.56q2.24-16.49,12.63-27.74c6.622898-7.351897,15.628887-12.129356,25.43-13.49q13.89-2.05,22.83,2.46t14.09,15q5.16,10.53,8.32,28q1.36,8,2.91,18.35t3.21,20.43q3.85,26.08,6,37.83l-47,6.95q-2-15.85-5-36.6l-4.14-28q-2.16-14.65-7.62-21.92t-14.21-6c-3.352056.637336-6.533602,1.969225-9.34,3.91q-5.16,3.28-6.58,6.81l4.2,28.36q5.88,39.79,9.4,58.33l-47.4,7q-2.18-19.51-8.53-62.53Z" transform="translate(-.67 0)" fill="#f0f0f0"/><path d="M540.68,544c0,0,5.24,23.09,4.69,32.29s-4.86,17.87-12.9,26q-14.78,14.88-32.82,10.94t-42.9-28.61q-23.22-23-27.11-42.22t12.36-35.6c4.221179-4.228699,9.288632-7.517262,14.87-9.65c5.841253-2.250812,12.148094-3.02371,18.36-2.25c6.49.75,20.91,5.7,20.91,5.7-5.057479-4.789181-10.400611-9.267393-16-13.41l-4.64-3.52-15.71-15.58l29.93-36.72q7.8,8.26,30.06,30.36l24.59,24.4q38.65,38.36,50.81,49.6l-34.43,34.7q-9.26-11.94-20.07-26.43Zm-8.13,7.78q2.57-6,1.87-10.21l-20.08-19.92q-8.75-8.68-18.75-10.21c-6.260901-1.149392-12.678671.942214-17.06,5.56-3.048363,3.237794-5.587312,6.919776-7.53,10.92q4.24,6.38,8.35,11.53c3.19271,3.948091,6.615309,7.704603,10.25,11.25q9.69,9.63,19.64,13.81t17.27-3.2c2.593784-2.776873,4.642669-6.016417,6.04-9.55Z" transform="translate(-.67 0)" fill="#f0f0f0"/><path d="M494.18,409.43c-3.25,2.4-7.26,2.86-12,1.35s-7.74-4.15-8.9-7.94-.6-9.3,1.68-16.52s5-12.09,8.12-14.59s7.1-3,11.87-1.51s7.78,4.23,9,8.19.74,9.48-1.49,16.58-5.03,12.01-8.28,14.44Z" transform="translate(-.67 0)" fill="#f0f0f0"/><path d="M570.67,443c-19-12-41-24-65-24c6-15,13-29,17-45c31,3,56,22,84,35c10.727962,5.886016,22.763416,8.980847,35,9-3,16-12,30-16,45-19-3-38-9-55-20Z" transform="translate(-.67 0)" fill="#f0f0f0"/><path d="M567.91,243.64L587.68,323q13.67-2.28,21.18-8.5t6-16.3c-.373506-2.326623-.952436-4.615573-1.73-6.84-.674254-2.075692-1.601211-4.060589-2.76-5.91-6.911089-.160923-13.825372.122996-20.7.85L583,241.52q19-1.56,32.21,3.13t21.67,17.51q8.49,12.81,12,35.44q4.65,30.25-8.89,48.58t-46.45,23.39q-32.9,5.06-51.56-9.31t-23.84-47.66q-4.6-30,7-46.24t41.42-22.52Zm-14.35,75.21c.967853,2.421412,2.23432,4.712475,3.77,6.82q14.5-.68,21-1.47l-8.61-34.51q-20.67,6.1-18.28,21.69c.413657,2.563995,1.125136,5.070953,2.12,7.47Z" transform="translate(-.67 0)" fill="#f0f0f0"/></g><path id="epX0OZ8c5ol17" d="M412.92,355.26c-.043431-.121911-.115441-.231641-.21-.32-.4-.33-.64-.77-1.08-1v-.12l-.22-.13-.49-.43v-.12c-.198536-.079589-.378845-.198661-.53-.35-.133602-.098404-.251596-.216398-.35-.35l-.93-.69c-.41-.14-.62-.46-1-.6-.14-.08-.25-.24-.4-.33-1.548606-.977332-3.206628-1.769423-4.94-2.36l-.09-.1c-.47-.12-.77-.3-1.24-.42l-.09-.1c-.27-.05-.47-.12-.74-.18l-.09-.1c-.26-.05-.47-.12-.73-.18l-.09-.1c-1.41-.37-2.71-.77-4.12-1.15-.4-.08-.78-.1-1.12-.2-.56-.22-1.16-.12-1.68-.42-2.67-.41-5.32-.95-8.08-1.21c0,0-.08-.1-.14-.09-.86-.15-1.66-.12-2.45-.28s-1.72-.1-2.56-.19c-.06,0-.09-.1-.14-.09-3.53-.3-16.42-2.23-8.4-4.5c9.64-2.77,18.57-7.48,25.7-15.14.09-.15.19-.24.28-.39.53-.58.94-1.13,1.48-1.71.165829-.122316.313904-.267026.44-.43.86-1.23,1.71-2.27,2.49-3.54.1-.09.19-.24.29-.33c3.418942-5.224778,5.405241-11.256091,5.76-17.49.34-7.34-1.73-14.6-7.6-19.72-.09-.1-.21-.07-.3-.17-.187293-.223929-.406268-.419322-.65-.58-.824735-.63792-1.724831-1.171932-2.68-1.59-.41-.14-.68-.44-1.06-.47-.14,0-.17-.14-.3-.17-.059712.030289-.130288.030289-.19,0-2.867356-1.105815-5.994719-1.352529-9-.71-7.56,1.65-13.33,6.7-18.54,12.72-.1.09-.16.1-.26.19-.035311.11068-.093197.212832-.17.3-2.617894,2.967142-5.058786,6.085874-7.31,9.34-5.73,8-8.45,5.33-8.15,3.18c0-.08.14-1.1.18-1.17c3-15.13.23-31.58-11-42.95h-.14c-.157254-.216343-.334719-.417247-.53-.6-.220803-.144035-.416696-.323041-.58-.53h-.14c-.16-.15-.19-.26-.35-.41h-.14c-.981773-.910997-2.038878-1.737279-3.16-2.47-.38-.27-.74-.43-1.12-.7-1.095384-.677695-2.254191-1.247052-3.46-1.7-.13,0-.24-.18-.37-.21l-.55-.17-.09-.1c-1.624995-.592155-3.297795-1.043811-5-1.35-1.391467-.2271-2.800276-.330836-4.21-.31-3.04759-.028087-6.053236.711288-8.74,2.15l-.24.07-2,1.29c-.26.19-.5.45-.82.66-.06,0,0,.13-.09.15h-.11c-.06,0,0,.13-.09.14-.708556.572334-1.328594,1.246288-1.84,2h-.12c-.54.77-1,1.53-1.5,2.34-.28.58-.56,1.15-.83,1.79s-.38,1.16-.6,1.72v.12c-1.047512,3.977737-1.191023,8.139555-.42,12.18.923856,5.068385,2.416632,10.016349,4.45,14.75c5.2,12.86,6.24,18.15-3,11.36l-.49-.43c-.08,0-.13,0-.21-.07-3.496568-2.627625-7.314045-4.798479-11.36-6.46-.342194-.113968-.67629-.250947-1-.41-.08,0-.12,0-.2,0-10.69-4.2-21.9-4.76-32.31.53-.55.27-1,.53-1.58.86-.337646.249441-.69556.470211-1.07.66-.06,0-.1.09-.14.17-.814357.478734-1.590052,1.020384-2.32,1.62-.36.28-.71.63-1.07.91-.55.52-1,1-1.59,1.55-.921306.99295-1.763855,2.056167-2.52,3.18-.011146.131687-.067705.25541-.16.35-.58.85-1,1.7-1.49,2.59-.125868.414294-.289905.816016-.49,1.2-.03394.058786-.03394.131214,0,.19c0,.13-.15.16-.18.29-.040714.214157-.107896.422421-.2.62c0,.13-.07.21-.1.34.025005.060865.025005.129135,0,.19-2.021656,5.976649-.32785,12.583278,4.32,16.85v.12c.09.1.22.12.25.24s.22.13.31.23c.009875.067504.050509.126607.11.16l.22.13c.057977.033271.095499.093307.1.16.15.08.31.23.46.31.059491.033393.100125.092496.11.16c1.406211,1.153369,2.927587,2.158684,4.54,3l2.72,1.27c.148649.068346.307358.112244.47.13l.09.1c.46.07.78.35,1.24.42l.09.1c2.292846.787444,4.630261,1.438581,7,1.95c3.104394.741761,6.254677,1.276274,9.43,1.6.06,0,.09.1.15.08c12.95,1.41,18.43,3.19,8.88,6.75-.16.11-.4.17-.56.28-7.490763,2.738449-14.263664,7.138613-19.81,12.87-.28.33-.53.58-.82.91-.08.15-.18.24-.27.38s-.16.11-.26.2c-1.264025,1.485824-2.429831,3.05248-3.49,4.69-.1.09-.19.23-.29.32s-.17.3-.24.51c-1.443506,2.332193-2.668702,4.792626-3.66,7.35-.07.21-.12.47-.19.68-.041914.018822-.076882.050294-.1.09-.584255,1.748022-1.025704,3.540571-1.32,5.36-.261104,1.60344-.391533,3.22544-.39,4.85.014002.238317-.006203.477412-.06.71l.07.23c0,6.43,2.19,12.6,7,17.07v.11c.44.26.68.69,1.19.93v.12c.9.57,1.69,1.17,2.63,1.67l1.29.59c.629008.265442,1.273522.492525,1.93.68.928458.223933,1.870423.387607,2.82.49.832058.065204,1.667942.065204,2.5,0c2.001125-.167655,3.966065-.632769,5.83-1.38c1.783963-.706226,3.495293-1.58366,5.11-2.62.030493-.065567.07906-.121073.14-.16.234225-.09185.455966-.2128.66-.36.1-.09.14-.17.24-.26.39-.16.57-.46,1-.63.125578-.100388.239612-.214422.34-.34c2.40952-1.842083,4.642472-3.904299,6.67-6.16c3.161104-3.493424,6.09702-7.184194,8.79-11.05l.82-1.16c0-.07,0-.13.07-.2l.52-.64c2.13-3,4-5.89,6-8.94c2.93-4.47,3.35-2.21,1.85,2.7-1.181033,3.951191-1.958343,8.011964-2.32,12.12-.1,1.47-.21,2.94-.24,4.44l.06.24c-.343403,9.253039,2.094872,18.396569,7,26.25c2.11659,3.317594,4.765409,6.263728,7.84,8.72.041985-.015286.088015-.015286.13,0c.235368.237183.500992.442285.79.61.07,0,.11.16.18.2c2.006179,1.445501,4.190989,2.625299,6.5,3.51s.08,0,.09.1c2.831344,1.144639,5.856037,1.73532,8.91,1.74c2.612593.048163,5.205886-.456183,7.61-1.48c2.08148-.809446,3.964179-2.057758,5.52-3.66h.12l.12-.22h.12c.078286-.124884.176211-.236316.29-.33l.13-.22h.11c.15-.16.23-.31.38-.47c1.208784-1.672759,2.168761-3.511874,2.85-5.46c0-.13,0-.19,0-.32c2.07-6.75.53-13.4-1.24-19.8q-1.39-4.21-2.89-8.4-1.38-3.84-2.84-7.65-1.23-3.21-2.5-6.41l-1-2.58-.45-1.11c-.187027-.393153-.340895-.801237-.46-1.22-.15-.64.19-.73.44-.52.464024.419077.901535.866607,1.31,1.34.44.47.87.94,1.32,1.4.89.91,1.8,1.79,2.74,2.65c1.899607,1.712343,3.903443,3.305393,6,4.77c2.112688,1.477679,4.320846,2.813932,6.61,4l.59.3c.200175.071008.39145.164968.57.28c6.28289,3.168957,13.213329,4.842529,20.25,4.89.06,0,.21.07.27.05s.3,0,.48-.06.21.07.26.05c8.7-.2,16.85-2.95,22.94-9.39c2.46711-2.524911,4.279703-5.614559,5.28-9v-.11l.13-.23c.255406-1.057349.445763-2.129359.57-3.21.360612-4.603594-1.195273-9.151845-4.3-12.57Zm-75.82,6.39c-8.852136,2.381538-18.267154-.804931-23.853402-8.073072s-6.24316-17.186034-1.664319-25.127461s13.491342-12.34182,22.580252-11.148609s16.563593,7.744948,18.937469,16.599142c3.238865,12.080467-3.92234,24.500682-16,27.75Z" transform="translate(.000034 0)" fill="#f0f0f0"/>
<script><![CDATA[
!function(t,n){"object"==typeof exports&&"undefined"!=typeof module?module.exports=n():"function"==typeof __SVGATOR_DEFINE__&&__SVGATOR_DEFINE__.amd?__SVGATOR_DEFINE__(n):((t="undefined"!=typeof globalThis?globalThis:t||self).__SVGATOR_PLAYER__=t.__SVGATOR_PLAYER__||{},t.__SVGATOR_PLAYER__["5c7f360c"]=n())}(this,(function(){"use strict";function t(t,n){var e=Object.keys(t);if(Object.getOwnPropertySymbols){var r=Object.getOwnPropertySymbols(t);n&&(r=r.filter((function(n){return Object.getOwnPropertyDescriptor(t,n).enumerable}))),e.push.apply(e,r)}return e}function n(n){for(var e=1;e<arguments.length;e++){var r=null!=arguments[e]?arguments[e]:{};e%2?t(Object(r),!0).forEach((function(t){o(n,t,r[t])})):Object.getOwnPropertyDescriptors?Object.defineProperties(n,Object.getOwnPropertyDescriptors(r)):t(Object(r)).forEach((function(t){Object.defineProperty(n,t,Object.getOwnPropertyDescriptor(r,t))}))}return n}function e(t){return(e="function"==typeof Symbol&&"symbol"==typeof Symbol.iterator?function(t){return typeof t}:function(t){return t&&"function"==typeof Symbol&&t.constructor===Symbol&&t!==Symbol.prototype?"symbol":typeof t})(t)}function r(t,n){if(!(t instanceof n))throw new TypeError("Cannot call a class as a function")}function i(t,n){for(var e=0;e<n.length;e++){var r=n[e];r.enumerable=r.enumerable||!1,r.configurable=!0,"value"in r&&(r.writable=!0),Object.defineProperty(t,r.key,r)}}function u(t,n,e){return n&&i(t.prototype,n),e&&i(t,e),t}function o(t,n,e){return n in t?Object.defineProperty(t,n,{value:e,enumerable:!0,configurable:!0,writable:!0}):t[n]=e,t}function a(t){return(a=Object.setPrototypeOf?Object.getPrototypeOf:function(t){return t.__proto__||Object.getPrototypeOf(t)})(t)}function l(t,n){return(l=Object.setPrototypeOf||function(t,n){return t.__proto__=n,t})(t,n)}function s(){if("undefined"==typeof Reflect||!Reflect.construct)return!1;if(Reflect.construct.sham)return!1;if("function"==typeof Proxy)return!0;try{return Boolean.prototype.valueOf.call(Reflect.construct(Boolean,[],(function(){}))),!0}catch(t){return!1}}function f(t,n,e){return(f=s()?Reflect.construct:function(t,n,e){var r=[null];r.push.apply(r,n);var i=new(Function.bind.apply(t,r));return e&&l(i,e.prototype),i}).apply(null,arguments)}function c(t,n){if(n&&("object"==typeof n||"function"==typeof n))return n;if(void 0!==n)throw new TypeError("Derived constructors may only return object or undefined");return function(t){if(void 0===t)throw new ReferenceError("this hasn't been initialised - super() hasn't been called");return t}(t)}function h(t,n,e){return(h="undefined"!=typeof Reflect&&Reflect.get?Reflect.get:function(t,n,e){var r=function(t,n){for(;!Object.prototype.hasOwnProperty.call(t,n)&&null!==(t=a(t)););return t}(t,n);if(r){var i=Object.getOwnPropertyDescriptor(r,n);return i.get?i.get.call(e):i.value}})(t,n,e||t)}function v(t){return function(t){if(Array.isArray(t))return y(t)}(t)||function(t){if("undefined"!=typeof Symbol&&null!=t[Symbol.iterator]||null!=t["@@iterator"])return Array.from(t)}(t)||function(t,n){if(!t)return;if("string"==typeof t)return y(t,n);var e=Object.prototype.toString.call(t).slice(8,-1);"Object"===e&&t.constructor&&(e=t.constructor.name);if("Map"===e||"Set"===e)return Array.from(t);if("Arguments"===e||/^(?:Ui|I)nt(?:8|16|32)(?:Clamped)?Array$/.test(e))return y(t,n)}(t)||function(){throw new TypeError("Invalid attempt to spread non-iterable instance.\nIn order to be iterable, non-array objects must have a [Symbol.iterator]() method.")}()}function y(t,n){(null==n||n>t.length)&&(n=t.length);for(var e=0,r=new Array(n);e<n;e++)r[e]=t[e];return r}Number.isInteger||(Number.isInteger=function(t){return"number"==typeof t&&isFinite(t)&&Math.floor(t)===t}),Number.EPSILON||(Number.EPSILON=2220446049250313e-31);var g=d(Math.pow(10,-6));function d(t){var n=arguments.length>1&&void 0!==arguments[1]?arguments[1]:6;if(Number.isInteger(t))return t;var e=Math.pow(10,n);return Math.round((+t+Number.EPSILON)*e)/e}function p(t,n){var e=arguments.length>2&&void 0!==arguments[2]?arguments[2]:g;return Math.abs(t-n)<e}var m=Math.PI/180;function b(t){return t}function w(t,n,e){var r=1-e;return 3*e*r*(t*r+n*e)+e*e*e}function A(){var t=arguments.length>0&&void 0!==arguments[0]?arguments[0]:0,n=arguments.length>1&&void 0!==arguments[1]?arguments[1]:0,e=arguments.length>2&&void 0!==arguments[2]?arguments[2]:1,r=arguments.length>3&&void 0!==arguments[3]?arguments[3]:1;return t<0||t>1||e<0||e>1?null:p(t,n)&&p(e,r)?b:function(i){if(i<=0)return t>0?i*n/t:0===n&&e>0?i*r/e:0;if(i>=1)return e<1?1+(i-1)*(r-1)/(e-1):1===e&&t<1?1+(i-1)*(n-1)/(t-1):1;for(var u,o=0,a=1;o<a;){var l=w(t,e,u=(o+a)/2);if(p(i,l))break;l<i?o=u:a=u}return w(n,r,u)}}function _(){return 1}function x(t){return 1===t?1:0}function k(){var t=arguments.length>0&&void 0!==arguments[0]?arguments[0]:1,n=arguments.length>1&&void 0!==arguments[1]?arguments[1]:0;if(1===t){if(0===n)return x;if(1===n)return _}var e=1/t;return function(t){return t>=1?1:(t+=n*e)-t%e}}var S=Math.sin,O=Math.cos,j=Math.acos,E=Math.asin,M=Math.tan,P=Math.atan2,I=Math.PI/180,R=180/Math.PI,F=Math.sqrt,N=function(){function t(){var n=arguments.length>0&&void 0!==arguments[0]?arguments[0]:1,e=arguments.length>1&&void 0!==arguments[1]?arguments[1]:0,i=arguments.length>2&&void 0!==arguments[2]?arguments[2]:0,u=arguments.length>3&&void 0!==arguments[3]?arguments[3]:1,o=arguments.length>4&&void 0!==arguments[4]?arguments[4]:0,a=arguments.length>5&&void 0!==arguments[5]?arguments[5]:0;r(this,t),this.m=[n,e,i,u,o,a],this.i=null,this.w=null,this.s=null}return u(t,[{key:"determinant",get:function(){var t=this.m;return t[0]*t[3]-t[1]*t[2]}},{key:"isIdentity",get:function(){if(null===this.i){var t=this.m;this.i=1===t[0]&&0===t[1]&&0===t[2]&&1===t[3]&&0===t[4]&&0===t[5]}return this.i}},{key:"point",value:function(t,n){var e=this.m;return{x:e[0]*t+e[2]*n+e[4],y:e[1]*t+e[3]*n+e[5]}}},{key:"translateSelf",value:function(){var t=arguments.length>0&&void 0!==arguments[0]?arguments[0]:0,n=arguments.length>1&&void 0!==arguments[1]?arguments[1]:0;if(!t&&!n)return this;var e=this.m;return e[4]+=e[0]*t+e[2]*n,e[5]+=e[1]*t+e[3]*n,this.w=this.s=this.i=null,this}},{key:"rotateSelf",value:function(){var t=arguments.length>0&&void 0!==arguments[0]?arguments[0]:0;if(t%=360){var n=S(t*=I),e=O(t),r=this.m,i=r[0],u=r[1];r[0]=i*e+r[2]*n,r[1]=u*e+r[3]*n,r[2]=r[2]*e-i*n,r[3]=r[3]*e-u*n,this.w=this.s=this.i=null}return this}},{key:"scaleSelf",value:function(){var t=arguments.length>0&&void 0!==arguments[0]?arguments[0]:1,n=arguments.length>1&&void 0!==arguments[1]?arguments[1]:1;if(1!==t||1!==n){var e=this.m;e[0]*=t,e[1]*=t,e[2]*=n,e[3]*=n,this.w=this.s=this.i=null}return this}},{key:"skewSelf",value:function(t,n){if(n%=360,(t%=360)||n){var e=this.m,r=e[0],i=e[1],u=e[2],o=e[3];t&&(t=M(t*I),e[2]+=r*t,e[3]+=i*t),n&&(n=M(n*I),e[0]+=u*n,e[1]+=o*n),this.w=this.s=this.i=null}return this}},{key:"resetSelf",value:function(){var t=arguments.length>0&&void 0!==arguments[0]?arguments[0]:1,n=arguments.length>1&&void 0!==arguments[1]?arguments[1]:0,e=arguments.length>2&&void 0!==arguments[2]?arguments[2]:0,r=arguments.length>3&&void 0!==arguments[3]?arguments[3]:1,i=arguments.length>4&&void 0!==arguments[4]?arguments[4]:0,u=arguments.length>5&&void 0!==arguments[5]?arguments[5]:0,o=this.m;return o[0]=t,o[1]=n,o[2]=e,o[3]=r,o[4]=i,o[5]=u,this.w=this.s=this.i=null,this}},{key:"recomposeSelf",value:function(){var t=arguments.length>0&&void 0!==arguments[0]?arguments[0]:null,n=arguments.length>1&&void 0!==arguments[1]?arguments[1]:null,e=arguments.length>2&&void 0!==arguments[2]?arguments[2]:null,r=arguments.length>3&&void 0!==arguments[3]?arguments[3]:null,i=arguments.length>4&&void 0!==arguments[4]?arguments[4]:null;return this.isIdentity||this.resetSelf(),t&&(t.x||t.y)&&this.translateSelf(t.x,t.y),n&&this.rotateSelf(n),e&&(e.x&&this.skewSelf(e.x,0),e.y&&this.skewSelf(0,e.y)),!r||1===r.x&&1===r.y||this.scaleSelf(r.x,r.y),i&&(i.x||i.y)&&this.translateSelf(i.x,i.y),this}},{key:"decompose",value:function(){var t=arguments.length>0&&void 0!==arguments[0]?arguments[0]:0,n=arguments.length>1&&void 0!==arguments[1]?arguments[1]:0,e=this.m,r=e[0]*e[0]+e[1]*e[1],i=[[e[0],e[1]],[e[2],e[3]]],u=F(r);if(0===u)return{origin:{x:d(e[4]),y:d(e[5])},translate:{x:d(t),y:d(n)},scale:{x:0,y:0},skew:{x:0,y:0},rotate:0};i[0][0]/=u,i[0][1]/=u;var o=e[0]*e[3]-e[1]*e[2]<0;o&&(u=-u);var a=i[0][0]*i[1][0]+i[0][1]*i[1][1];i[1][0]-=i[0][0]*a,i[1][1]-=i[0][1]*a;var l=F(i[1][0]*i[1][0]+i[1][1]*i[1][1]);if(0===l)return{origin:{x:d(e[4]),y:d(e[5])},translate:{x:d(t),y:d(n)},scale:{x:d(u),y:0},skew:{x:0,y:0},rotate:0};i[1][0]/=l,i[1][1]/=l,a/=l;var s=0;return i[1][1]<0?(s=j(i[1][1])*R,i[0][1]<0&&(s=360-s)):s=E(i[0][1])*R,o&&(s=-s),a=P(a,F(i[0][0]*i[0][0]+i[0][1]*i[0][1]))*R,o&&(a=-a),{origin:{x:d(e[4]),y:d(e[5])},translate:{x:d(t),y:d(n)},scale:{x:d(u),y:d(l)},skew:{x:d(a),y:0},rotate:d(s)}}},{key:"clone",value:function(){var t=this.m;return new this.constructor(t[0],t[1],t[2],t[3],t[4],t[5])}},{key:"toString",value:function(){var t=arguments.length>0&&void 0!==arguments[0]?arguments[0]:" ";if(null===this.s){var n=this.m.map((function(t){return d(t)}));1===n[0]&&0===n[1]&&0===n[2]&&1===n[3]?this.s="translate("+n[4]+t+n[5]+")":this.s="matrix("+n.join(t)+")"}return this.s}}],[{key:"create",value:function(t){return t?Array.isArray(t)?f(this,v(t)):t instanceof this?t.clone():(new this).recomposeSelf(t.origin,t.rotate,t.skew,t.scale,t.translate):new this}}]),t}();function T(t,n,e){return t>=.5?e:n}function B(t,n,e){return 0===t||n===e?n:t*(e-n)+n}function q(t,n,e){var r=B(t,n,e);return r<=0?0:r}function D(t,n,e){var r=B(t,n,e);return r<=0?0:r>=1?1:r}function L(t,n,e){return 0===t?n:1===t?e:{x:B(t,n.x,e.x),y:B(t,n.y,e.y)}}function C(t,n,e){var r=function(t,n,e){return Math.round(B(t,n,e))}(t,n,e);return r<=0?0:r>=255?255:r}function V(t,n,e){return 0===t?n:1===t?e:{r:C(t,n.r,e.r),g:C(t,n.g,e.g),b:C(t,n.b,e.b),a:B(t,null==n.a?1:n.a,null==e.a?1:e.a)}}function G(t,n){for(var e=[],r=0;r<t;r++)e.push(n);return e}function z(t,n){if(--n<=0)return t;var e=(t=Object.assign([],t)).length;do{for(var r=0;r<e;r++)t.push(t[r])}while(--n>0);return t}var Y,$=function(){function t(n){r(this,t),this.list=n,this.length=n.length}return u(t,[{key:"setAttribute",value:function(t,n){for(var e=this.list,r=0;r<this.length;r++)e[r].setAttribute(t,n)}},{key:"removeAttribute",value:function(t){for(var n=this.list,e=0;e<this.length;e++)n[e].removeAttribute(t)}},{key:"style",value:function(t,n){for(var e=this.list,r=0;r<this.length;r++)e[r].style[t]=n}}]),t}(),U=/-./g,Q=function(t,n){return n.toUpperCase()};function H(t){return"function"==typeof t?t:T}function J(t){return t?"function"==typeof t?t:Array.isArray(t)?function(t){var n=arguments.length>1&&void 0!==arguments[1]?arguments[1]:b;if(!Array.isArray(t))return n;switch(t.length){case 1:return k(t[0])||n;case 2:return k(t[0],t[1])||n;case 4:return A(t[0],t[1],t[2],t[3])||n}return n}(t,null):function(t,n){var e=arguments.length>2&&void 0!==arguments[2]?arguments[2]:b;switch(t){case"linear":return b;case"steps":return k(n.steps||1,n.jump||0)||e;case"bezier":case"cubic-bezier":return A(n.x1||0,n.y1||0,n.x2||0,n.y2||0)||e}return e}(t.type,t.value,null):null}function Z(t,n,e){var r=arguments.length>3&&void 0!==arguments[3]&&arguments[3],i=n.length-1;if(t<=n[0].t)return r?[0,0,n[0].v]:n[0].v;if(t>=n[i].t)return r?[i,1,n[i].v]:n[i].v;var u,o=n[0],a=null;for(u=1;u<=i;u++){if(!(t>n[u].t)){a=n[u];break}o=n[u]}return null==a?r?[i,1,n[i].v]:n[i].v:o.t===a.t?r?[u,1,a.v]:a.v:(t=(t-o.t)/(a.t-o.t),o.e&&(t=o.e(t)),r?[u,t,e(t,o.v,a.v)]:e(t,o.v,a.v))}function K(t,n){var e=arguments.length>2&&void 0!==arguments[2]?arguments[2]:null;return t&&t.length?"function"!=typeof n?null:("function"!=typeof e&&(e=null),function(r){var i=Z(r,t,n);return null!=i&&e&&(i=e(i)),i}):null}function W(t,n){return t.t-n.t}function X(t,n,r,i,u){var o,a="@"===r[0],l="#"===r[0],s=Y[r],f=T;switch(a?(o=r.substr(1),r=o.replace(U,Q)):l&&(r=r.substr(1)),e(s)){case"function":if(f=s(i,u,Z,J,r,a,n,t),l)return f;break;case"string":f=K(i,H(s));break;case"object":if((f=K(i,H(s.i),s.f))&&"function"==typeof s.u)return s.u(n,f,r,a,t)}return f?function(t,n,e){if(arguments.length>3&&void 0!==arguments[3]&&arguments[3])return t instanceof $?function(r){return t.style(n,e(r))}:function(r){return t.style[n]=e(r)};if(Array.isArray(n)){var r=n.length;return function(i){var u=e(i);if(null==u)for(var o=0;o<r;o++)t[o].removeAttribute(n);else for(var a=0;a<r;a++)t[a].setAttribute(n,u)}}return function(r){var i=e(r);null==i?t.removeAttribute(n):t.setAttribute(n,i)}}(n,r,f,a):null}function tt(t,n,r,i){if(!i||"object"!==e(i))return null;var u=null,o=null;return Array.isArray(i)?o=function(t){if(!t||!t.length)return null;for(var n=0;n<t.length;n++)t[n].e&&(t[n].e=J(t[n].e));return t.sort(W)}(i):(o=i.keys,u=i.data||null),o?X(t,n,r,o,u):null}function nt(t,n,e){if(!e)return null;var r=[];for(var i in e)if(e.hasOwnProperty(i)){var u=tt(t,n,i,e[i]);u&&r.push(u)}return r.length?r:null}function et(t,n){if(!n.settings.duration||n.settings.duration<0)return null;var e,r,i,u,o,a=function(t,n){if(!n)return null;var e=[];if(Array.isArray(n))for(var r=n.length,i=0;i<r;i++){var u=n[i];if(2===u.length){var o=null;if("string"==typeof u[0])o=t.getElementById(u[0]);else if(Array.isArray(u[0])){o=[];for(var a=0;a<u[0].length;a++)if("string"==typeof u[0][a]){var l=t.getElementById(u[0][a]);l&&o.push(l)}o=o.length?1===o.length?o[0]:new $(o):null}if(o){var s=nt(t,o,u[1]);s&&(e=e.concat(s))}}}else for(var f in n)if(n.hasOwnProperty(f)){var c=t.getElementById(f);if(c){var h=nt(t,c,n[f]);h&&(e=e.concat(h))}}return e.length?e:null}(t,n.elements);return a?(e=a,r=n.settings,i=r.duration,u=e.length,o=null,function(t,n){var a=r.iterations||1/0,l=(r.alternate&&a%2==0)^r.direction>0?i:0,s=t%i,f=1+(t-s)/i;n*=r.direction,r.alternate&&f%2==0&&(n=-n);var c=!1;if(f>a)s=l,c=!0,-1===r.fill&&(s=r.direction>0?0:i);else if(n<0&&(s=i-s),s===o)return!1;o=s;for(var h=0;h<u;h++)e[h](s);return c}):null}function rt(t,n){if(Y=n,!t||!t.root||!Array.isArray(t.animations))return null;var e=function(t){for(var n=document.getElementsByTagName("svg"),e=0;e<n.length;e++)if(n[e].id===t.root&&!n[e].svgatorAnimation)return n[e].svgatorAnimation=!0,n[e];return null}(t);if(!e)return null;var r=t.animations.map((function(t){return et(e,t)})).filter((function(t){return!!t}));return r.length?{svg:e,animations:r,animationSettings:t.animationSettings,options:t.options||void 0}:null}function it(t){var n=arguments.length>1&&void 0!==arguments[1]?arguments[1]:null,e=arguments.length>2&&void 0!==arguments[2]?arguments[2]:Number,r=arguments.length>3&&void 0!==arguments[3]?arguments[3]:"undefined"!=typeof BigInt&&BigInt,i="0x"+(t.replace(/[^0-9a-fA-F]+/g,"")||27);return n&&r&&e.isSafeInteger&&!e.isSafeInteger(+i)?e(r(i))%n+n:+i}function ut(t,n,e){return!t||!e||n>t.length?t:t.substring(0,n)+ut(t.substring(n+1),e,e)}function ot(t){var n=arguments.length>1&&void 0!==arguments[1]?arguments[1]:27;return!t||t%n?t%n:[0,1].includes(n)?n:ot(t/n,n)}function at(t,n,e){if(t&&t.length){var r=it(e),i=ot(r)+5,u=ut(t,ot(r,5),i);return u=u.replace(/\x7c$/g,"==").replace(/\x2f$/g,"="),u=function(t,n,e){var r=+("0x"+t.substring(0,4));t=t.substring(4);for(var i=it(n,r)%r+e%27,u=[],o=0;o<t.length;o+=2)if("|"!==t[o]){var a=+("0x"+t[o]+t[o+1])-i;u.push(a)}else{var l=+("0x"+t.substring(o+1,o+1+4))-i;o+=3,u.push(l)}return String.fromCharCode.apply(String,u)}(u=(u=atob(u)).replace(/[\x41-\x5A]/g,""),n,r),u=JSON.parse(u)}}var lt=[{key:"alternate",def:!1},{key:"fill",def:1},{key:"iterations",def:0},{key:"direction",def:1},{key:"speed",def:1},{key:"fps",def:100}],st=function(){function t(n,e){var i=this,u=arguments.length>2&&void 0!==arguments[2]?arguments[2]:null;r(this,t),this._id=0,this._running=!1,this._rollingBack=!1,this._animations=n,this._settings=e,(!u||u<"2022-05-02")&&delete this._settings.speed,lt.forEach((function(t){i._settings[t.key]=i._settings[t.key]||t.def})),this.duration=e.duration,this.offset=e.offset||0,this.rollbackStartOffset=0}return u(t,[{key:"alternate",get:function(){return this._settings.alternate}},{key:"fill",get:function(){return this._settings.fill}},{key:"iterations",get:function(){return this._settings.iterations}},{key:"direction",get:function(){return this._settings.direction}},{key:"speed",get:function(){return this._settings.speed}},{key:"fps",get:function(){return this._settings.fps}},{key:"maxFiniteDuration",get:function(){return this.iterations>0?this.iterations*this.duration:this.duration}},{key:"_apply",value:function(t){for(var n=arguments.length>1&&void 0!==arguments[1]?arguments[1]:{},e=this._animations,r=e.length,i=0,u=0;u<r;u++)n[u]?i++:(n[u]=e[u](t,1),n[u]&&i++);return i}},{key:"_rollback",value:function(t){var n=this,e=1/0,r=null;this.rollbackStartOffset=t,this._rollingBack=!0,this._running=!0;this._id=window.requestAnimationFrame((function i(u){if(n._rollingBack){null==r&&(r=u);var o=Math.round(t-(u-r)*n.speed);if(o>n.duration&&e!==1/0){var a=!!n.alternate&&o/n.duration%2>1,l=o%n.duration;o=(l+=a?n.duration:0)||n.duration}var s=(n.fps?1e3/n.fps:0)*n.speed,f=Math.max(0,o);f<=e-s&&(n.offset=f,e=f,n._apply(f));var c=n.iterations>0&&-1===n.fill&&o>=n.maxFiniteDuration;(o<=0||n.offset<o||c)&&n.stop(),n._id=window.requestAnimationFrame(i)}}))}},{key:"_start",value:function(){var t=this,n=arguments.length>0&&void 0!==arguments[0]?arguments[0]:0,e=-1/0,r=null,i={};this._running=!0;var u=function u(o){null==r&&(r=o);var a=Math.round((o-r)*t.speed+n),l=(t.fps?1e3/t.fps:0)*t.speed;if(a>=e+l&&!t._rollingBack&&(t.offset=a,e=a,t._apply(a,i)===t._animations.length))return void t.pause(!0);t._id=window.requestAnimationFrame(u)};this._id=window.requestAnimationFrame(u)}},{key:"_pause",value:function(){this._id&&window.cancelAnimationFrame(this._id),this._running=!1}},{key:"play",value:function(){if(!this._running)return this._rollingBack?this._rollback(this.offset):this._start(this.offset)}},{key:"stop",value:function(){this._pause(),this.offset=0,this.rollbackStartOffset=0,this._rollingBack=!1,this._apply(0)}},{key:"reachedToEnd",value:function(){return this.iterations>0&&this.offset>=this.iterations*this.duration}},{key:"restart",value:function(){var t=arguments.length>0&&void 0!==arguments[0]&&arguments[0];this.stop(t),this.play(t)}},{key:"pause",value:function(){this._pause()}},{key:"reverse",value:function(){this.direction=-this.direction}}],[{key:"build",value:function(t,n){delete t.animationSettings,t.options=at(t.options,t.root,"5c7f360c"),t.animations.map((function(n){n.settings=at(n.s,t.root,"5c7f360c"),delete n.s,t.animationSettings||(t.animationSettings=n.settings)}));var e=t.version;if(!(t=rt(t,n)))return null;var r=t.options||{},i=new this(t.animations,t.animationSettings,e);return{el:t.svg,options:r,player:i}}},{key:"push",value:function(t){return this.build(t)}},{key:"init",value:function(){var t=this,n=window.__SVGATOR_PLAYER__&&window.__SVGATOR_PLAYER__["5c7f360c"];Array.isArray(n)&&n.splice(0).forEach((function(n){return t.build(n)}))}}]),t}();function ft(t){return d(t)+""}function ct(t){var n=arguments.length>1&&void 0!==arguments[1]?arguments[1]:" ";return t&&t.length?t.map(ft).join(n):""}function ht(t){if(!t)return"transparent";if(null==t.a||t.a>=1){var n=function(t){return 1===(t=parseInt(t).toString(16)).length?"0"+t:t},e=function(t){return t.charAt(0)===t.charAt(1)},r=n(t.r),i=n(t.g),u=n(t.b);return e(r)&&e(i)&&e(u)&&(r=r.charAt(0),i=i.charAt(0),u=u.charAt(0)),"#"+r+i+u}return"rgba("+t.r+","+t.g+","+t.b+","+t.a+")"}function vt(t){return t?"url(#"+t+")":"none"}!function(){for(var t=0,n=["ms","moz","webkit","o"],e=0;e<n.length&&!window.requestAnimationFrame;++e)window.requestAnimationFrame=window[n[e]+"RequestAnimationFrame"],window.cancelAnimationFrame=window[n[e]+"CancelAnimationFrame"]||window[n[e]+"CancelRequestAnimationFrame"];window.requestAnimationFrame||(window.requestAnimationFrame=function(n){var e=Date.now(),r=Math.max(0,16-(e-t)),i=window.setTimeout((function(){n(e+r)}),r);return t=e+r,i},window.cancelAnimationFrame=window.clearTimeout)}();var yt={f:null,i:function(t,n,e){return 0===t?n:1===t?e:{x:q(t,n.x,e.x),y:q(t,n.y,e.y)}},u:function(t,n){return function(e){var r=n(e);t.setAttribute("rx",ft(r.x)),t.setAttribute("ry",ft(r.y))}}},gt={f:null,i:function(t,n,e){return 0===t?n:1===t?e:{width:q(t,n.width,e.width),height:q(t,n.height,e.height)}},u:function(t,n){return function(e){var r=n(e);t.setAttribute("width",ft(r.width)),t.setAttribute("height",ft(r.height))}}};Object.freeze({M:2,L:2,Z:0,H:1,V:1,C:6,Q:4,T:2,S:4,A:7});var dt={},pt=null;function mt(t){var n=function(){if(pt)return pt;if("object"!==("undefined"==typeof document?"undefined":e(document))||!document.createElementNS)return{};var t=document.createElementNS("http://www.w3.org/2000/svg","svg");return t&&t.style?(t.style.position="absolute",t.style.opacity="0.01",t.style.zIndex="-9999",t.style.left="-9999px",t.style.width="1px",t.style.height="1px",pt={svg:t}):{}}().svg;if(!n)return function(t){return null};var r=document.createElementNS(n.namespaceURI,"path");r.setAttributeNS(null,"d",t),r.setAttributeNS(null,"fill","none"),r.setAttributeNS(null,"stroke","none"),n.appendChild(r);var i=r.getTotalLength();return function(t){var n=r.getPointAtLength(i*t);return{x:n.x,y:n.y}}}function bt(t){return dt[t]?dt[t]:dt[t]=mt(t)}function wt(t,n,e,r){if(!t||!r)return!1;var i=["M",t.x,t.y];if(n&&e&&(i.push("C"),i.push(n.x),i.push(n.y),i.push(e.x),i.push(e.y)),n?!e:e){var u=n||e;i.push("Q"),i.push(u.x),i.push(u.y)}return n||e||i.push("L"),i.push(r.x),i.push(r.y),i.join(" ")}function At(t,n,e,r){var i=arguments.length>4&&void 0!==arguments[4]?arguments[4]:1,u=wt(t,n,e,r),o=bt(u);try{return o(i)}catch(t){return null}}function _t(t,n,e){return t+(n-t)*e}function xt(t,n,e){var r=arguments.length>3&&void 0!==arguments[3]&&arguments[3],i={x:_t(t.x,n.x,e),y:_t(t.y,n.y,e)};return r&&(i.a=kt(t,n)),i}function kt(t,n){return Math.atan2(n.y-t.y,n.x-t.x)}function St(t,n,e,r){var i=1-r;return i*i*t+2*i*r*n+r*r*e}function Ot(t,n,e,r){return 2*(1-r)*(n-t)+2*r*(e-n)}function jt(t,n,e,r){var i=arguments.length>4&&void 0!==arguments[4]&&arguments[4],u=At(t,n,null,e,r);return u||(u={x:St(t.x,n.x,e.x,r),y:St(t.y,n.y,e.y,r)}),i&&(u.a=Et(t,n,e,r)),u}function Et(t,n,e,r){return Math.atan2(Ot(t.y,n.y,e.y,r),Ot(t.x,n.x,e.x,r))}function Mt(t,n,e,r,i){var u=i*i;return i*u*(r-t+3*(n-e))+3*u*(t+e-2*n)+3*i*(n-t)+t}function Pt(t,n,e,r,i){var u=1-i;return 3*(u*u*(n-t)+2*u*i*(e-n)+i*i*(r-e))}function It(t,n,e,r,i){var u=arguments.length>5&&void 0!==arguments[5]&&arguments[5],o=At(t,n,e,r,i);return o||(o={x:Mt(t.x,n.x,e.x,r.x,i),y:Mt(t.y,n.y,e.y,r.y,i)}),u&&(o.a=Rt(t,n,e,r,i)),o}function Rt(t,n,e,r,i){return Math.atan2(Pt(t.y,n.y,e.y,r.y,i),Pt(t.x,n.x,e.x,r.x,i))}function Ft(t,n,e){var r=arguments.length>3&&void 0!==arguments[3]&&arguments[3];if(Tt(n)){if(Bt(e))return jt(n,e.start,e,t,r)}else if(Tt(e)){if(qt(n))return jt(n,n.end,e,t,r)}else{if(qt(n))return Bt(e)?It(n,n.end,e.start,e,t,r):jt(n,n.end,e,t,r);if(Bt(e))return jt(n,e.start,e,t,r)}return xt(n,e,t,r)}function Nt(t,n,e){var r=Ft(t,n,e,!0);return r.a=function(t){return arguments.length>1&&void 0!==arguments[1]&&arguments[1]?t+Math.PI:t}(r.a)/m,r}function Tt(t){return!t.type||"corner"===t.type}function Bt(t){return null!=t.start&&!Tt(t)}function qt(t){return null!=t.end&&!Tt(t)}var Dt=new N;var Lt={f:ft,i:B},Ct={f:ft,i:D};function Vt(t,n,e){return t.map((function(t){return function(t,n,e){var r=t.v;if(!r||"g"!==r.t||r.s||!r.v||!r.r)return t;var i=e.getElementById(r.r),u=i&&i.querySelectorAll("stop")||[];return r.s=r.v.map((function(t,n){var e=u[n]&&u[n].getAttribute("offset");return{c:t,o:e=d(parseInt(e)/100)}})),delete r.v,t}(t,0,e)}))}var Gt={gt:"gradientTransform",c:{x:"cx",y:"cy"},rd:"r",f:{x:"x1",y:"y1"},to:{x:"x2",y:"y2"}};function zt(t,n,r,i,u,o,a,l){return Vt(t,0,l),n=function(t,n,e){for(var r,i,u,o=t.length-1,a={},l=0;l<=o;l++)(r=t[l]).e&&(r.e=n(r.e)),r.v&&"g"===(i=r.v).t&&i.r&&(u=e.getElementById(i.r))&&(a[i.r]={e:u,s:u.querySelectorAll("stop")});return a}(t,i,l),function(i){var u=r(i,t,Yt);if(!u)return"none";if("c"===u.t)return ht(u.v);if("g"===u.t){if(!n[u.r])return vt(u.r);var o=n[u.r];return function(t,n){for(var e=t.s,r=e.length;r<n.length;r++){var i=e[e.length-1].cloneNode();i.id=Qt(i.id),t.e.appendChild(i),e=t.s=t.e.querySelectorAll("stop")}for(var u=0,o=e.length,a=n.length-1;u<o;u++)e[u].setAttribute("stop-color",ht(n[Math.min(u,a)].c)),e[u].setAttribute("offset",n[Math.min(u,a)].o)}(o,u.s),Object.keys(Gt).forEach((function(t){if(void 0!==u[t])if("object"!==e(Gt[t])){var n,r="gt"===t?(n=u[t],Array.isArray(n)?"matrix("+n.join(" ")+")":""):u[t],i=Gt[t];o.e.setAttribute(i,r)}else Object.keys(Gt[t]).forEach((function(n){if(void 0!==u[t][n]){var e=u[t][n],r=Gt[t][n];o.e.setAttribute(r,e)}}))})),vt(u.r)}return"none"}}function Yt(t,e,r){if(0===t)return e;if(1===t)return r;if(e&&r){var i=e.t;if(i===r.t)switch(e.t){case"c":return{t:i,v:V(t,e.v,r.v)};case"g":if(e.r===r.r){var u={t:i,s:$t(t,e.s,r.s),r:e.r};return e.gt&&r.gt&&(u.gt=function(t,n,e){var r=n.length;if(r!==e.length)return T(t,n,e);for(var i=new Array(r),u=0;u<r;u++)i[u]=B(t,n[u],e[u]);return i}(t,e.gt,r.gt)),e.c?(u.c=L(t,e.c,r.c),u.rd=q(t,e.rd,r.rd)):e.f&&(u.f=L(t,e.f,r.f),u.to=L(t,e.to,r.to)),u}}if("c"===e.t&&"g"===r.t||"c"===r.t&&"g"===e.t){var o="c"===e.t?e:r,a="g"===e.t?n({},e):n({},r),l=a.s.map((function(t){return{c:o.v,o:t.o}}));return a.s="c"===e.t?$t(t,l,a.s):$t(t,a.s,l),a}}return T(t,e,r)}function $t(t,n,e){if(n.length===e.length)return n.map((function(n,r){return Ut(t,n,e[r])}));for(var r=Math.max(n.length,e.length),i=[],u=0;u<r;u++){var o=Ut(t,n[Math.min(u,n.length-1)],e[Math.min(u,e.length-1)]);i.push(o)}return i}function Ut(t,n,e){return{o:D(t,n.o,e.o||0),c:V(t,n.c,e.c||{})}}function Qt(t){return t.replace(/-fill-([0-9]+)$/,(function(t,n){return"-fill-"+(+n+1)}))}var Ht={fill:zt,"fill-opacity":Ct,stroke:zt,"stroke-opacity":Ct,"stroke-width":Lt,"stroke-dashoffset":{f:ft,i:B},"stroke-dasharray":{f:function(t){var n=arguments.length>1&&void 0!==arguments[1]?arguments[1]:" ";return t&&t.length>0&&(t=t.map((function(t){return d(t,4)}))),ct(t,n)},i:function(t,n,e){var r,i,u,o=n.length,a=e.length;if(o!==a)if(0===o)n=G(o=a,0);else if(0===a)a=o,e=G(o,0);else{var l=(u=(r=o)*(i=a)/function(t,n){for(var e;n;)e=n,n=t%n,t=e;return t||1}(r,i))<0?-u:u;n=z(n,Math.floor(l/o)),e=z(e,Math.floor(l/a)),o=a=l}for(var s=[],f=0;f<o;f++)s.push(d(q(t,n[f],e[f])));return s}},opacity:Ct,transform:function(t,n,r,i){if(!(t=function(t,n){if(!t||"object"!==e(t))return null;var r=!1;for(var i in t)t.hasOwnProperty(i)&&(t[i]&&t[i].length?(t[i].forEach((function(t){t.e&&(t.e=n(t.e))})),r=!0):delete t[i]);return r?t:null}(t,i)))return null;var u=function(e,i,u){var o=arguments.length>3&&void 0!==arguments[3]?arguments[3]:null;return t[e]?r(i,t[e],u):n&&n[e]?n[e]:o};return n&&n.a&&t.o?function(n){var e=r(n,t.o,Nt);return Dt.recomposeSelf(e,u("r",n,B,0)+e.a,u("k",n,L),u("s",n,L),u("t",n,L)).toString()}:function(t){return Dt.recomposeSelf(u("o",t,Ft,null),u("r",t,B,0),u("k",t,L),u("s",t,L),u("t",t,L)).toString()}},r:Lt,"#size":gt,"#radius":yt,_:function(t,n){if(Array.isArray(t))for(var e=0;e<t.length;e++)this[t[e]]=n;else this[t]=n}},Jt=function(t){!function(t,n){if("function"!=typeof n&&null!==n)throw new TypeError("Super expression must either be null or a function");t.prototype=Object.create(n&&n.prototype,{constructor:{value:t,writable:!0,configurable:!0}}),n&&l(t,n)}(o,t);var n,e,i=(n=o,e=s(),function(){var t,r=a(n);if(e){var i=a(this).constructor;t=Reflect.construct(r,arguments,i)}else t=r.apply(this,arguments);return c(this,t)});function o(){return r(this,o),i.apply(this,arguments)}return u(o,null,[{key:"build",value:function(t){var n=h(a(o),"build",this).call(this,t,Ht);if(!n)return null;n.el,n.options,function(t,n,e){t.play()}(n.player)}}]),o}(st);return Jt.init(),Jt}));
(function(s,i,o,w,d,a,b){w[o]=w[o]||{};w[o][s]=w[o][s]||[];w[o][s].push(i);})('5c7f360c',{"root":"epX0OZ8c5ol1","version":"2022-05-04","animations":[{"elements":{"epX0OZ8c5ol2":{"transform":{"data":{"o":{"x":325.242554,"y":339.985102,"type":"corner"},"t":{"x":-324.664999,"y":-339.434999}},"keys":{"r":[{"t":0,"v":0},{"t":9500,"v":-360.09757}]}}},"epX0OZ8c5ol17":{"transform":{"data":{"o":{"x":331.290169,"y":339.435,"type":"corner"},"t":{"x":-331.290135,"y":-339.435}},"keys":{"r":[{"t":0,"v":0},{"t":9500,"v":180.066102}]}}}},"s":"MEDA1ZGFjNTM5NWE2YTWM5MkNhNTlhWWEwOWYD1MzZiNmE2NjYxNjE1AZDUzOTU5YWEzOTY5NEGE1OWFhMDlmNTM2YjJYyNWQ1MzlhYTU5NmECzOTJhNTlhYTA5ZmE0ONTM2YjYxNWQ1Mzk3OXWE5ZDlkNTNPNmJPNjKI1ZDUzOTJPOWRhNUEA5NmEzOWZHOTJhNTk2INTM2Yjk3OTI5ZGE0OMTY1ZFg1M2E0YTE5NjRk2OTU1MzZiNjI1ZEcB1Mzk3YTFhNDUzNmI2SMjYxNjFhZQ|"}],"options":"MRDAxMDg4MmY4MDgxNmKU3ZjgxMmY0NzJmNzkC3YzZlNzEyZjhhVQ|"},'__SVGATOR_PLAYER__',window,document)
]]></script>
</svg>
